<svg xmlns="http://www.w3.org/2000/svg" width="29" height="29" fill="none"><path d="M10.808 14.725c.807.254 1.953.496 3.462.28 1.12-.16 1.877-.732 2.5-1.21l.02-.014c.65-.492 1.18-.886 1.966-1.017 1.274-.212 2.315.454 2.642.78a.64.64 0 0 0 1.078-.588l-1.6-7.36a.64.64 0 0 0-.241-.376c-.538-.403-1.686-1.046-3.675-.762-1.066.152-1.738.64-2.356 1.09l-.018.013c-.604.44-1.197.87-2.192 1.155-.764.218-1.596.18-2.35.02a7.09 7.09 0 0 1-1.051-.307A1.28 1.28 0 0 0 7.78 4.772a1.28 1.28 0 0 0-.247 2.536l4.428 16.827a.64.64 0 0 0 1.238-.326z" fill="#fff" fill-rule="evenodd"/></svg>